<svg width="135" height="55" viewBox="0 0 135 55" fill="none" xmlns="http://www.w3.org/2000/svg">
<path d="M34.3276 34.2943H0V0H34.3276V34.2943ZM0.770171 33.5249H33.5575V0.769423H0.770171V33.5249Z" fill="#333333"/>
<path d="M67.8851 34.2943H33.5574V0H67.8851V34.2943ZM34.3276 33.5249H67.1149V0.769423H34.3276V33.5249Z" fill="#333333"/>
<path d="M101.429 34.2943H67.1149V0H101.429V34.2943ZM67.8713 33.5249H100.672V0.769423H67.885L67.8713 33.5249Z" fill="#333333"/>
<path d="M135 34.2943H100.672V0H135V34.2943ZM101.429 33.5249H134.23V0.769423H101.429V33.5249Z" fill="#333333"/>
<path d="M16.0739 12.0841H18.9104V22.2102H16.0739V12.0841Z" fill="#333333"/>
<path d="M49.2187 14.5435H46.1793V12.0841H55.0672V14.5435H52.0277V22.2102H49.2187V14.5435Z" fill="#333333"/>
<path d="M79.9671 12.0841H88.3633V14.4885H82.7487V16.0205H88.3633V18.2051H82.7487V19.8092H88.3633V22.1965H79.9671V12.0841Z" fill="#333333"/>
<path d="M116.162 12.0841H118.868L123.179 22.2824H120.171L119.431 20.4722H115.526L114.804 22.2824H111.847L116.162 12.0841ZM118.62 18.291L117.492 15.4125L116.347 18.291H118.62Z" fill="#333333"/>
<path d="M-6.29122e-05 49.3873C-0.00143446 48.6621 0.133868 47.9432 0.398776 47.268C0.650697 46.6089 1.02256 46.0022 1.49558 45.4784C1.98215 44.9511 2.57353 44.5311 3.23191 44.2453C3.93491 43.9364 4.69536 43.7795 5.46334 43.785C6.23212 43.779 6.99357 43.9346 7.69821 44.2418C8.3505 44.5265 8.93606 44.9442 9.41734 45.4681C9.88693 45.9906 10.2564 46.5949 10.5073 47.2508C10.769 47.9327 10.9019 48.6571 10.8992 49.3873C10.902 50.833 10.3678 52.2283 9.40015 53.3031C8.91368 53.8321 8.3208 54.2523 7.66039 54.5363C6.95803 54.8476 6.1973 55.0056 5.42896 55C4.66017 55.006 3.89872 54.8503 3.19408 54.5432C2.54072 54.2588 1.95488 53.8398 1.47495 53.3135C1.00872 52.7872 0.641773 52.1808 0.391899 51.5239C0.129581 50.8422 -0.00334023 50.1176 -6.29122e-05 49.3873ZM0.831997 49.3873C0.823557 50.2393 1.028 51.0799 1.42682 51.833C1.81134 52.565 2.38772 53.1788 3.09437 53.6089C3.80641 54.0469 4.62716 54.2765 5.46334 54.2718C6.30099 54.282 7.12453 54.0558 7.83918 53.6192C8.53895 53.1916 9.10844 52.5811 9.48611 51.8536C9.82775 51.1856 10.0254 50.4535 10.0662 49.7044C10.1071 48.9554 9.99029 48.2061 9.72335 47.505C9.50316 46.9315 9.17653 46.4048 8.76063 45.9524C8.33366 45.4993 7.81847 45.1382 7.24672 44.8913C6.67496 44.6444 6.05872 44.5169 5.43583 44.5166C4.5999 44.5066 3.77834 44.7342 3.06687 45.1727C2.36609 45.599 1.79631 46.2099 1.41994 46.9382C1.02512 47.6938 0.823166 48.5351 0.831997 49.3873Z" fill="#333333"/>
<path d="M28.706 54.8111V43.967H29.4624L36.9544 53.4028V43.967H37.728V54.8111H37.1332L29.4865 45.1933V54.8111H28.706Z" fill="#333333"/>
<path d="M56.0883 54.8111V43.967H56.8894V54.0692H63.264V54.8111H56.0883Z" fill="#333333"/>
<path d="M80.6066 54.8111V43.967H81.4146V54.8111H80.6066Z" fill="#333333"/>
<path d="M99.8231 54.8111V43.967H100.58L108.072 53.4028V43.967H108.845V54.8111H108.24L100.593 45.1933V54.8111H99.8231Z" fill="#333333"/>
<path d="M127.216 54.8111V43.967H134.938V44.7159H128.006V48.9717H134.226V49.7137H128.006V54.0692H135V54.8111H127.216Z" fill="#333333"/>
</svg>
