<svg width="149" height="32" fill="none" xmlns="http://www.w3.org/2000/svg"><g clip-path="url(#clip0)" fill="#fff"><path d="M17.633 15.777h1.486c1.828 0 2.693 1.057 2.693 2.876 0 1.82-.832 2.876-2.693 2.876l-1.486.016v-5.768z"/><path d="M3.592 1.269H26.22a3.573 3.573 0 013.591 3.574v22.519c0 1.966-1.6 3.574-3.591 3.574H3.59A3.573 3.573 0 010 27.362V4.843C0 2.861 1.6 1.27 3.592 1.27zM6.53 26.452h17.192V24.99H6.53v1.462zm6.66-7.149v-1.576H8.589v-1.982H13.6l-.016-1.625H6.53v9.083h7.15v-1.674H8.589v-2.226h4.604zm2.417 3.867h3.755c2.89 0 4.507-1.609 4.507-4.533 0-2.924-1.633-4.533-4.507-4.533h-3.755v9.066zm7.919-10.268c.277 0 .555-.13.734-.39a.836.836 0 00-.26-1.154l-9.095-5.8-9.094 5.8a.836.836 0 10.898 1.414l8.18-5.215 8.18 5.215c.146.081.293.13.457.13zm12.681 4.349V1.288h9.298v2.46h-5.901v4.317h5.481v2.326h-5.481v4.417h6.339v2.46h-9.736v-.017zm19.185-.001V9.555c0-1.389-.269-2.125-1.547-2.125-.756 0-1.715.552-2.203.82v8.985H48.28V4.902h3.363v1.34c.387-.486 1.984-1.624 3.33-1.624 3.48 0 3.75 2.426 3.75 4.735v7.915l-3.33-.017zm10.744 5.07c-1.715 0-3.262-.267-4.472-.685l.52-2.46c1.363.285 2.758.552 3.532.552 1.58 0 2.421-.485 2.421-2.359v-.652c-.05.016-.891.752-2.118.752-1.951 0-5.095-.786-5.095-6.257 0-4.234 2.606-6.576 5.901-6.576 1.278 0 2.674.184 4.658.519v12.331c.017 3.598-2.438 4.836-5.347 4.836zm2.001-15.04c-.353-.067-.706-.134-1.278-.134-1.85 0-2.623 1.807-2.623 4.066 0 2.81.992 3.831 2.388 3.831.605 0 1.076-.267 1.496-.468l.017-7.295zm6.188 9.972V.218h3.362v17.034h-3.362zm6.237-.002V4.92h3.363v12.33h-3.363zm9.467.218c-1.513 0-2.757-.15-3.985-.535l.387-2.292c1.076.2 2.236.401 3.363.401.925 0 1.85-.351 1.85-1.154 0-1.925-5.398-1.958-5.398-5.488 0-2.343 1.9-3.698 4.607-3.698 1.379 0 2.539.267 3.548.669l-.522 2.209c-.941-.251-1.933-.469-3.06-.469-.756 0-1.278.352-1.278 1.004 0 1.874 5.398 1.857 5.398 5.471 0 2.544-2.237 3.882-4.91 3.882zm14.124-.216V9.555c0-1.389-.269-2.125-1.547-2.125-.757 0-1.715.552-2.203.82v8.985H97.04V.218h3.363v6.04c.387-.484 1.984-1.622 3.329-1.622 3.481 0 3.75 2.426 3.75 4.735v7.914h-3.329v-.033zM82.076 3.246c.9 0 1.63-.727 1.63-1.623S82.977 0 82.077 0s-1.63.727-1.63 1.623.73 1.623 1.63 1.623zM59.461 21.334H36.224v-1.991h23.674l-.437 1.99zm14.208-1.991h75.26v1.99H73.231l.438-1.99zm40.572-2.025h-4.237V.652h4.153c4.17 0 7.146 2.644 7.146 8.283-.017 5.756-2.707 8.383-7.062 8.383zm-.151-14.072h-1.211v11.512h1.547c2.623 0 3.901-2.075 3.901-5.589 0-3.798-1.48-5.923-4.237-5.923zm13.333 14.339c-3.077 0-4.707-2.576-4.707-6.575 0-4.217 1.899-6.86 4.876-6.86 3.346 0 4.792 2.61 4.792 6.743 0 4.333-2.035 6.692-4.961 6.692zm.101-10.892c-1.429 0-1.95 2.058-1.95 4.216 0 2.293.538 4.1 1.984 4.1 1.463 0 1.9-1.84 1.9-4.133 0-2.125-.404-4.183-1.934-4.183zm18.547 10.625V9.219c0-1.455-.135-2.175-1.228-2.175-.589 0-1.345.519-1.816.87.017.419.05.854.05 1.255v8.149h-2.858V9.219c0-1.455-.168-2.175-1.227-2.175-.656 0-1.329.586-1.749.904v9.386h-2.892V4.451h2.892v1.372c.336-.519 1.698-1.673 2.825-1.673 1.496 0 2.253.686 2.656 1.673.471-.586 1.951-1.673 3.229-1.673 2.909 0 3.026 2.543 3.026 5.02v8.148h-2.908zM40.394 29.352c0 .297-.059.546-.176.748a1.4 1.4 0 01-.466.488 2.017 2.017 0 01-.662.265c-.248.053-.501.08-.761.08h-2.157V25.5h2.157c.209 0 .423.021.642.065.22.044.418.117.597.222.178.106.324.247.436.427.112.178.168.406.168.683 0 .302-.082.55-.244.748a1.36 1.36 0 01-.643.426v.015c.153.026.297.073.432.143a1.238 1.238 0 01.677 1.124zm-1.484-2.28c0-.184-.07-.319-.21-.403-.14-.085-.348-.126-.624-.126h-.642v1.12h.704c.244 0 .434-.05.57-.15.135-.1.202-.247.202-.44zm.176 2.157c0-.225-.084-.381-.252-.468-.169-.087-.393-.13-.674-.13h-.726v1.243h.734c.102 0 .208-.009.318-.027a.975.975 0 00.298-.096.571.571 0 00.218-.195.58.58 0 00.084-.327zm3.258 1.704v1.068h-1.07v-2.172h.933l1.636-4.33h1.27l1.622 4.33h.964V32h-1.071v-1.067h-4.284zm1.209-1.105h1.79l-.895-2.855-.895 2.855zm10.922-1.636c0 .43-.074.823-.221 1.179-.148.355-.354.66-.616.913a2.762 2.762 0 01-.937.588 3.285 3.285 0 01-1.178.206c-.424 0-.815-.069-1.174-.206a2.756 2.756 0 01-.933-.588 2.682 2.682 0 01-.616-.913 3.043 3.043 0 01-.222-1.179c0-.434.074-.827.222-1.178.148-.35.353-.648.616-.894.262-.246.573-.435.933-.568.36-.133.75-.2 1.174-.2.423 0 .816.067 1.178.2s.674.322.937.568c.262.246.468.543.616.894.147.35.221.744.221 1.178zm-1.4 0c0-.234-.038-.455-.114-.66a1.473 1.473 0 00-.807-.872 1.547 1.547 0 00-.631-.126c-.23 0-.44.042-.628.127a1.491 1.491 0 00-.807.872 1.93 1.93 0 00-.11.66c0 .245.038.472.115.678.076.208.182.386.317.534.135.148.297.265.485.35.189.084.398.126.628.126a1.493 1.493 0 001.438-1.01 1.95 1.95 0 00.115-.679zm6.143 2.741l-1.186-1.918-1.14 1.918h-1.56l1.897-2.87-1.744-2.564h1.576l1.01 1.689.994-1.69h1.522l-1.713 2.565 1.958 2.87h-1.614zm6.142 0v-2.271h-2.112v2.271H61.94V25.5h1.308v2.057h2.111V25.5h1.309v5.434h-1.309zm8.681-2.741c0 .43-.074.823-.222 1.179-.148.355-.353.66-.615.913a2.756 2.756 0 01-.938.588 3.285 3.285 0 01-1.177.206c-.424 0-.815-.069-1.174-.206a2.756 2.756 0 01-.934-.588 2.682 2.682 0 01-.615-.913 3.043 3.043 0 01-.222-1.179c0-.434.074-.827.222-1.178.147-.35.353-.648.615-.894.263-.246.574-.435.934-.568.36-.133.75-.2 1.174-.2.423 0 .816.067 1.177.2.362.133.675.322.938.568.262.246.468.543.615.894.148.35.222.744.222 1.178zm-1.4 0c0-.234-.038-.455-.114-.66a1.472 1.472 0 00-.807-.872 1.547 1.547 0 00-.631-.126c-.23 0-.44.042-.628.127a1.49 1.49 0 00-.807.872 1.928 1.928 0 00-.11.66c0 .245.038.472.115.678.076.208.182.386.317.534.135.148.297.265.485.35.189.084.398.126.628.126a1.493 1.493 0 001.438-1.01 1.95 1.95 0 00.115-.679zm7.099 1.16c0 .297-.059.546-.176.748a1.4 1.4 0 01-.467.488 2.017 2.017 0 01-.661.265c-.248.053-.502.08-.762.08h-2.157V25.5h2.157c.21 0 .424.021.643.065.22.044.418.117.597.222.178.106.323.247.436.427.112.178.168.406.168.683 0 .302-.082.55-.245.748a1.36 1.36 0 01-.643.426v.015c.154.026.298.073.433.143a1.238 1.238 0 01.677 1.124zm-1.484-2.28c0-.184-.07-.319-.21-.403-.141-.085-.348-.126-.624-.126h-.642v1.12h.704c.244 0 .434-.05.57-.15a.516.516 0 00.202-.44zm.176 2.157c0-.225-.084-.381-.252-.468-.17-.087-.394-.13-.674-.13h-.726v1.243h.734c.102 0 .208-.009.318-.027a.975.975 0 00.298-.096.571.571 0 00.218-.195.58.58 0 00.084-.327zm3.518 1.704h-1.4l2.104-5.434h1.338l2.15 5.434h-1.43l-1.377-3.623-1.385 3.623zm6.226-2.463c-.367-.062-.663-.201-.887-.419-.225-.217-.337-.508-.337-.87 0-.534.206-.947.616-1.24.41-.296 1.018-.442 1.824-.442h1.981v5.434h-1.3V28.96h-.466c-.383 0-.707.17-.972.508-.265.337-.441.826-.528 1.465h-1.422a3.23 3.23 0 01.168-.875 3.1 3.1 0 01.337-.69c.132-.2.284-.373.454-.518.171-.147.348-.268.532-.365v-.016zm1.897-1.866h-.566c-.408 0-.703.054-.883.16a.527.527 0 00-.272.485c0 .082.02.16.057.234a.487.487 0 00.191.192c.09.053.21.097.36.13.15.034.338.05.562.05h.551v-1.251zm3.029 4.329V25.5h3.64v1.105h-2.377v1.028h2.248v1.053h-2.248v1.128h2.516v1.12h-3.779zm10.165 0l.031-3.845h-.023l-1.407 3.845h-.918l-1.37-3.845h-.022l.03 3.845h-1.231V25.5h1.861l1.233 3.485h.03l1.18-3.485h1.891v5.434h-1.285zm9.753-1.581c0 .297-.059.546-.176.748a1.404 1.404 0 01-.467.488 2.006 2.006 0 01-.661.265c-.248.053-.502.08-.762.08h-2.157V25.5h2.157c.21 0 .424.021.643.065.219.044.418.117.597.222.178.106.323.247.436.427.112.178.168.406.168.683 0 .302-.082.55-.245.748-.163.197-.377.34-.643.426v.015c.154.026.298.073.433.143a1.246 1.246 0 01.589.64c.058.144.088.305.088.484zm-1.484-2.28c0-.184-.07-.319-.21-.403-.141-.085-.348-.126-.624-.126h-.642v1.12h.704c.244 0 .434-.05.569-.15.135-.1.203-.247.203-.44zm.176 2.157c0-.225-.084-.381-.253-.468-.168-.087-.392-.13-.673-.13h-.726v1.243h.734c.102 0 .208-.009.318-.027a.98.98 0 00.298-.096.57.57 0 00.218-.195.58.58 0 00.084-.327zm4.084-3.73v1.98h.337c.31 0 .605.026.883.077.278.051.519.14.723.264.204.127.366.293.485.504.12.21.18.47.18.783 0 .312-.06.583-.18.813a1.57 1.57 0 01-.493.568c-.209.149-.452.26-.73.334a3.422 3.422 0 01-.891.111h-1.614V25.5h1.3zm0 4.33h.436c.326 0 .549-.06.669-.177a.629.629 0 00.18-.469.643.643 0 00-.042-.237.462.462 0 00-.138-.189.684.684 0 00-.26-.127 1.534 1.534 0 00-.409-.045h-.436v1.243zm4.245-4.33v5.434h-1.3V25.5h1.3zm2.601 0l1.132 2.702 1.086-2.702h1.4l-1.844 4.252c-.081.19-.175.367-.279.53a1.738 1.738 0 01-.375.423 1.69 1.69 0 01-.516.279 2.12 2.12 0 01-.703.104c-.24 0-.438-.02-.593-.058a1.631 1.631 0 01-.383-.14.943.943 0 01-.237-.173 12.23 12.23 0 00-.157-.163l.811-.917c.066.072.15.147.253.227a.558.558 0 00.351.119c.102 0 .194-.02.276-.057a.65.65 0 00.229-.196l-1.904-4.23h1.453zm7.442 0h1.293v5.434h-1.285v-2.018h-.979c-.704 0-1.215-.188-1.534-.565-.318-.375-.478-.904-.478-1.585v-1.266h1.3v.99c0 .23.012.428.035.595.023.166.066.303.13.41a.561.561 0 00.275.238 1.2 1.2 0 00.471.077h.772v-2.31zm4.345 3.623l2.248-3.623h1.477v5.434h-1.301v-3.576h-.023l-2.256 3.576h-1.469V25.5h1.301v3.623h.023zm7.771-2.502v4.313h-1.308V26.62h-1.529V25.5h4.367v1.12h-1.53zm2.739-1.121h1.3v1.98h.489c.312 0 .607.028.884.084.278.057.519.148.723.273a1.4 1.4 0 01.485.499c.12.207.18.464.18.772 0 .312-.06.583-.18.813-.12.23-.284.42-.493.568-.209.149-.452.26-.73.334a3.422 3.422 0 01-.891.111h-1.767V25.5zm1.3 3.086v1.243h.589c.327 0 .551-.058.673-.172a.607.607 0 00.183-.465c0-.195-.06-.344-.183-.449-.122-.105-.346-.157-.673-.157h-.589z"/></g><defs><clipPath id="clip0"><path fill="#fff" d="M0 0h149v32H0z"/></clipPath></defs></svg>