<svg width="135" height="55" fill="none" xmlns="http://www.w3.org/2000/svg"><path d="M34.328 34.294H0V0h34.328v34.294zM.77 33.524h32.787V.77H.77v32.756z" fill="#333"/><path d="M67.885 34.294H33.557V0h34.328v34.294zm-33.557-.77h32.787V.77H34.328v32.756z" fill="#333"/><path d="M101.429 34.294H67.115V0h34.314v34.294zm-33.558-.77h32.801V.77H67.885l-.014 32.756z" fill="#333"/><path d="M135 34.294h-34.328V0H135v34.294zm-33.571-.77h32.801V.77h-32.801v32.756zm-85.355-21.44h2.836V22.21h-2.836V12.084zm33.145 2.459h-3.04v-2.459h8.888v2.46h-3.04v7.666H49.22v-7.667zm30.748-2.459h8.396v2.405H82.75v1.531h5.614v2.185H82.75v1.604h5.614v2.387h-8.396V12.085z" fill="#333"/><path d="M116.162 12.084h2.706l4.311 10.198h-3.008l-.74-1.81h-3.905l-.722 1.81h-2.957l4.315-10.198zm2.458 6.207l-1.128-2.879-1.145 2.879h2.273zM0 49.387a5.772 5.772 0 01.399-2.119 5.714 5.714 0 011.097-1.79 5.156 5.156 0 011.736-1.233 5.45 5.45 0 012.231-.46c.77-.006 1.53.15 2.235.457a5.11 5.11 0 011.72 1.226 5.73 5.73 0 011.09 1.783c.261.682.394 1.406.391 2.136A5.836 5.836 0 019.4 53.303c-.486.53-1.08.95-1.74 1.233A5.41 5.41 0 015.43 55a5.487 5.487 0 01-2.235-.457 5.059 5.059 0 01-1.719-1.23 5.819 5.819 0 01-1.083-1.79A5.876 5.876 0 010 49.388zm.832 0a5.117 5.117 0 00.595 2.446 4.563 4.563 0 004.036 2.439 4.453 4.453 0 002.376-.653 4.498 4.498 0 001.647-1.765 5.36 5.36 0 00.237-4.349 4.877 4.877 0 00-.962-1.553 4.57 4.57 0 00-3.325-1.435 4.415 4.415 0 00-2.37.656 4.467 4.467 0 00-1.646 1.765 5.173 5.173 0 00-.588 2.45zm27.874 5.424V43.967h.756l7.492 9.436v-9.436h.774v10.844h-.595l-7.647-9.618v9.618h-.78zm27.382 0V43.967h.801v10.102h6.375v.742h-7.176zm24.519 0V43.967h.808v10.844h-.808zm19.216 0V43.967h.757l7.492 9.436v-9.436h.773v10.844h-.605l-7.647-9.618v9.618h-.77zm27.393 0V43.967h7.722v.749h-6.932v4.256h6.22v.742h-6.22v4.355H135v.742h-7.784z" fill="#333"/></svg>