<svg width="11" height="13" viewBox="0 0 11 13" fill="none" xmlns="http://www.w3.org/2000/svg">
<path fill-rule="evenodd" clip-rule="evenodd" d="M5.43368 0.139648C6.65892 0.139648 7.84852 0.527871 8.78648 1.23289V1.23286C10.0117 2.15325 10.7324 3.46192 10.8195 4.9169C10.903 6.35339 10.3309 7.75882 9.25055 8.77258L5.66926 12.0892C5.53054 12.2182 5.28992 12.217 5.1512 12.088L1.62051 8.77496C0.537701 7.7589 -0.0356278 6.35232 0.0490816 4.91693C0.135007 3.46201 0.85689 2.15334 2.08088 1.23289C3.0176 0.527871 4.20846 0.139648 5.43368 0.139648ZM3.02744 5.34537C3.02744 6.67247 4.10654 7.7516 5.43367 7.7516C6.76077 7.7516 7.84113 6.6725 7.8399 5.34537C7.8399 4.01826 6.7608 2.93913 5.43367 2.93913C4.10657 2.93913 3.02744 4.01823 3.02744 5.34537Z" fill="white"/>
<path d="M5.43367 4.09656C4.78668 4.09656 4.26123 4.58962 4.26123 5.19673C4.26123 5.80383 4.78668 6.2969 5.43367 6.2969C6.08066 6.2969 6.60612 5.80383 6.60612 5.19673C6.60612 4.58962 6.08066 4.09656 5.43367 4.09656Z" fill="white"/>
</svg>
